<svg width="100.358276" height="73.848259" viewBox="0 0 100.358 73.8483" fill="none" xmlns="http://www.w3.org/2000/svg" xmlns:xlink="http://www.w3.org/1999/xlink">
	<desc>
			Created with Pixso.
	</desc>
	<defs/>
	<path id="Vector" d="M96.3252 0C94.2943 0 92.6455 1.64796 92.6455 3.68044L92.6455 27.6131L75.4596 1.60724L59.6349 1.60724L59.6349 51.8878L66.9916 51.8878L66.9916 14.6501L91.7804 51.8878L100.002 51.8878L100.002 3.68044C100.002 1.64796 98.3568 0 96.3252 0ZM26.7765 47.559C18.0601 47.559 14.9995 38.2145 14.9995 26.686C14.9995 15.1592 18.1521 5.81473 26.7765 5.81473C35.3992 5.81473 38.5518 15.1592 38.5518 26.686C38.5518 38.2145 35.4928 47.559 26.7765 47.559ZM0.10022 26.6844C0.10022 41.4241 12.0441 53.3721 26.7748 53.3721C41.5088 53.3721 53.4535 41.4241 53.4535 26.6844C53.4535 11.9488 41.5088 0 26.7748 0C12.0441 0 0.10022 11.9488 0.10022 26.6844ZM32.5056 67.104L32.5056 73.4605L28.501 73.4605L28.501 72.8642C28.501 72.8642 28.0505 73.4605 26.5614 73.4605C25.0723 73.4605 21.6558 72.9261 21.6558 69.4485C21.6558 65.9701 28.1287 65.597 28.1287 65.597C27.8339 64.6797 26.282 64.6797 26.282 64.6797L22.8411 64.6797C22.3156 64.6797 21.8888 64.2529 21.8888 63.7275C21.8888 63.2029 22.3156 62.7752 22.8411 62.7752L27.6481 62.7752C32.6213 62.7752 32.5073 67.1024 32.5073 67.1024L32.5056 67.104ZM28.5026 66.3106C25.8176 66.4027 25.1505 67.6612 25.1505 69.5414C25.1505 71.2333 26.5011 72.026 27.4933 72.026C28.3943 72.026 28.5026 71.3889 28.5026 71.3889L28.5026 66.3106ZM58.3999 67.1024L58.3999 73.4589L54.3944 73.4589L54.3944 72.8626C54.3944 72.8626 53.944 73.4589 52.4531 73.4589C50.9624 73.4589 47.5475 72.9245 47.5475 69.4469C47.5475 65.9685 54.0205 65.5946 54.0205 65.5946C53.7256 64.6781 52.1737 64.6781 52.1737 64.6781L48.7328 64.6781C48.2058 64.6781 47.7805 64.2513 47.7805 63.7258C47.7805 63.2012 48.2083 62.7735 48.7328 62.7735L53.5382 62.7735C58.5115 62.7735 58.3982 67.1008 58.3982 67.1008L58.3999 67.1024ZM54.3928 66.309C51.7062 66.401 51.0389 67.6596 51.0389 69.5389C51.0389 71.2317 52.3896 72.0243 53.3834 72.0243C54.2844 72.0243 54.3928 71.3865 54.3928 71.3865L54.3928 66.309ZM76.609 61.3887C77.6143 61.3887 78.4305 60.5741 78.4305 59.568C78.4305 58.5628 77.6158 57.7457 76.609 57.7457C75.6013 57.7457 74.7867 58.5603 74.7867 59.568C74.7867 60.5757 75.6013 61.3887 76.609 61.3887ZM14.5833 62.6831C14.5833 62.6831 12.4392 62.4925 10.8165 64.4574C10.0621 63.4945 8.82397 62.6831 6.81104 62.6831C6.81104 62.6831 4.83801 62.5569 3.94275 64.2871L3.94275 62.7776L0 62.7776L0 73.4621L3.94275 73.4621L3.94275 65.7607C4.17249 65.3917 4.7655 64.6496 5.85547 64.6496C7.25574 64.6496 7.88635 65.8707 7.88635 66.6063L7.88635 72.307C7.88635 72.9424 8.78967 73.4589 9.90576 73.4589C11.021 73.4589 11.9252 72.9424 11.9252 72.307L11.9252 67.425C11.9252 67.1717 11.8591 66.634 11.6458 66.01C11.8429 65.6467 12.4889 64.6496 13.6489 64.6496C15.0159 64.6496 15.6309 65.8707 15.6309 66.6063L15.6309 72.307C15.6309 72.9424 16.5139 73.4589 17.6023 73.4589C18.6914 73.4589 19.5745 72.9424 19.5745 72.307L19.5745 67.1774C19.5745 67.1774 19.5687 62.6848 14.5817 62.6848L14.5833 62.6831ZM78.5787 64.7498C78.5787 63.6599 77.6957 62.7776 76.6066 62.7776C75.5182 62.7776 74.6351 63.6599 74.6351 64.7498L74.6351 73.4621L78.5787 73.4621L78.5787 64.7498ZM95.3639 62.6848C95.3639 62.6848 93.2198 62.4941 91.5972 64.459C90.8428 63.4961 89.6046 62.6848 87.5925 62.6848C87.5925 62.6848 85.6187 62.5585 84.7242 64.2887L84.7242 62.7776L80.7831 62.7776L80.7831 73.4621L84.7258 73.4621L84.7258 65.7607C84.9531 65.3917 85.5494 64.6496 86.6385 64.6496C88.0389 64.6496 88.6686 65.8707 88.6686 66.6063L88.6686 72.307C88.6686 72.9424 89.5729 73.4589 90.688 73.4589C91.8041 73.4589 92.7074 72.9424 92.7074 72.307L92.7074 67.425C92.7074 67.1717 92.6415 66.634 92.4281 66.01C92.626 65.6467 93.2736 64.6496 94.4336 64.6496C95.7997 64.6496 96.4156 65.8707 96.4156 66.6063L96.4156 72.307C96.4156 72.9424 97.2979 73.4589 98.387 73.4589C99.4761 73.4589 100.358 72.9424 100.358 72.307L100.358 67.1774C100.358 67.1774 100.353 62.6848 95.3639 62.6848ZM67.2352 63.1727L64.5258 63.1727L64.5258 57.7457L60.4796 57.7457L60.4796 72.1205C60.4796 72.8609 61.0791 73.4605 61.8196 73.4605L68.4742 73.4605C70.1198 73.4605 72.4634 72.654 72.4634 68.5125L72.4634 68.1191C72.4634 63.9767 68.8832 63.1711 67.2377 63.1711L67.2352 63.1727ZM68.3195 68.8253C68.3195 71.4582 66.8295 71.9722 65.7836 71.9722L64.5258 71.9722L64.5258 65.1017L65.2924 65.1017C67.0153 65.1017 68.3195 65.2084 68.3195 68.2486L68.3195 68.8253ZM44.4479 69.5805C44.1473 69.5805 43.92 69.6831 43.7189 69.8705C43.5177 70.057 43.4468 70.1458 43.3254 70.2705C42.7544 70.8602 42.4089 71.5258 40.8473 71.5258C39.1106 71.5258 38.5289 70.0872 38.5289 68.3129C38.5289 66.5387 39.1106 65.1001 40.8473 65.1001C41.7222 65.1001 42.5125 65.465 43.0835 66.054C43.2048 66.1786 43.3148 66.3155 43.4142 66.4597C43.6317 66.6365 43.9054 66.7448 44.2059 66.7448C44.9073 66.7448 45.4752 66.177 45.4752 65.4773C45.4752 65.2565 45.4125 65.0537 45.3147 64.872C45.1639 64.6993 45.0035 64.5339 44.8308 64.3792C43.7351 63.391 42.2281 62.7809 40.5638 62.7809C37.2117 62.7809 34.495 65.2589 34.495 68.3146C34.495 71.371 37.2117 73.8483 40.5638 73.8483C44.1653 73.8483 45.4059 71.6292 45.5566 71.4565C45.6569 71.2765 45.7172 71.072 45.7172 70.8513C45.7172 70.1499 45.1493 69.5837 44.4479 69.5837L44.4479 69.5805ZM0 59.4027L58.3999 59.4027L58.3999 57.7474L0 57.7474L0 59.4027ZM80.7831 59.4027L100.358 59.4027L100.358 57.7474L80.7831 57.7474L80.7831 59.4027ZM66.819 59.4027L72.4609 59.4027L72.4609 57.7474L66.8206 57.7474L66.819 59.4027Z" fill="#FFFFFF" fill-opacity="1.000000" fill-rule="nonzero"/>
</svg>
