<svg width="80.286621" height="59.078613" viewBox="0 0 80.2866 59.0786" fill="none" xmlns="http://www.w3.org/2000/svg" xmlns:xlink="http://www.w3.org/1999/xlink">
	<defs/>
	<path id="Vector" d="M77.0602 0C75.4354 0 74.1165 1.31836 74.1165 2.94434L74.1165 22.0903L60.3677 1.28589L47.7079 1.28589L47.7079 41.5103L53.5933 41.5103L53.5933 11.72L73.4243 41.5103L80.0018 41.5103L80.0018 2.94434C80.0018 1.31836 78.6854 0 77.0602 0ZM21.4211 38.0471C14.448 38.0471 11.9996 30.5715 11.9996 21.3489C11.9996 12.1274 14.5217 4.65186 21.4211 4.65186C28.3193 4.65186 30.8414 12.1274 30.8414 21.3489C30.8414 30.5715 28.3943 38.0471 21.4211 38.0471ZM0.0802002 21.3474C0.0802002 33.1392 9.63525 42.6978 21.4198 42.6978C33.207 42.6978 42.7628 33.1392 42.7628 21.3474C42.7628 9.55908 33.207 0 21.4198 0C9.63525 0 0.0802002 9.55908 0.0802002 21.3474ZM26.0045 53.6833L26.0045 58.7683L22.8008 58.7683L22.8008 58.2913C22.8008 58.2913 22.4404 58.7683 21.2491 58.7683C20.0579 58.7683 17.3246 58.3408 17.3246 55.5588C17.3246 52.7761 22.5029 52.4775 22.5029 52.4775C22.2671 51.7439 21.0256 51.7439 21.0256 51.7439L18.2728 51.7439C17.8525 51.7439 17.511 51.4023 17.511 50.9819C17.511 50.5623 17.8525 50.2202 18.2728 50.2202L22.1185 50.2202C26.097 50.2202 26.0059 53.6819 26.0059 53.6819L26.0045 53.6833ZM22.8021 53.0486C20.6542 53.1221 20.1204 54.1289 20.1204 55.6331C20.1204 56.9866 21.2009 57.6208 21.9946 57.6208C22.7155 57.6208 22.8021 57.1111 22.8021 57.1111L22.8021 53.0486ZM46.7198 53.6819L46.7198 58.7671L43.5155 58.7671L43.5155 58.29C43.5155 58.29 43.1552 58.7671 41.9625 58.7671C40.7699 58.7671 38.0381 58.3396 38.0381 55.5576C38.0381 52.7747 43.2164 52.4756 43.2164 52.4756C42.9805 51.7424 41.739 51.7424 41.739 51.7424L38.9862 51.7424C38.5646 51.7424 38.2244 51.4011 38.2244 50.9807C38.2244 50.561 38.5665 50.2188 38.9862 50.2188L42.8306 50.2188C46.8092 50.2188 46.7186 53.6807 46.7186 53.6807L46.7198 53.6819ZM43.5142 53.0471C41.365 53.1208 40.8312 54.1277 40.8312 55.6311C40.8312 56.9854 41.9117 57.6194 42.7068 57.6194C43.4275 57.6194 43.5142 57.1091 43.5142 57.1091L43.5142 53.0471ZM61.2872 49.1111C62.0914 49.1111 62.7444 48.4592 62.7444 47.6545C62.7444 46.8503 62.0927 46.1965 61.2872 46.1965C60.4811 46.1965 59.8293 46.8484 59.8293 47.6545C59.8293 48.4607 60.4811 49.1111 61.2872 49.1111ZM11.6666 50.1465C11.6666 50.1465 9.95142 49.9939 8.6532 51.5659C8.04968 50.7957 7.05908 50.1465 5.44885 50.1465C5.44885 50.1465 3.87036 50.0454 3.15417 51.4297L3.15417 50.2222L0 50.2222L0 58.7698L3.15417 58.7698L3.15417 52.6086C3.33801 52.3135 3.81238 51.7197 4.68433 51.7197C5.80469 51.7197 6.30908 52.6965 6.30908 53.2852L6.30908 57.8457C6.30908 58.354 7.03174 58.7671 7.92456 58.7671C8.81677 58.7671 9.54016 58.354 9.54016 57.8457L9.54016 53.9399C9.54016 53.7373 9.4873 53.3071 9.31665 52.8081C9.47437 52.5173 9.99109 51.7197 10.9191 51.7197C12.0127 51.7197 12.5046 52.6965 12.5046 53.2852L12.5046 57.8457C12.5046 58.354 13.2112 58.7671 14.0818 58.7671C14.9531 58.7671 15.6595 58.354 15.6595 57.8457L15.6595 53.7419C15.6595 53.7419 15.655 50.1477 11.6653 50.1477L11.6666 50.1465ZM62.863 51.7998C62.863 50.928 62.1565 50.2222 61.2853 50.2222C60.4146 50.2222 59.7081 50.928 59.7081 51.7998L59.7081 58.7698L62.863 58.7698L62.863 51.7998ZM76.2911 50.1477C76.2911 50.1477 74.5759 49.9954 73.2777 51.5671C72.6742 50.7969 71.6837 50.1477 70.074 50.1477C70.074 50.1477 68.4949 50.0469 67.7794 51.4309L67.7794 50.2222L64.6265 50.2222L64.6265 58.7698L67.7806 58.7698L67.7806 52.6086C67.9625 52.3135 68.4396 51.7197 69.3108 51.7197C70.4312 51.7197 70.9348 52.6965 70.9348 53.2852L70.9348 57.8457C70.9348 58.354 71.6582 58.7671 72.5504 58.7671C73.4432 58.7671 74.166 58.354 74.166 57.8457L74.166 53.9399C74.166 53.7373 74.1132 53.3071 73.9424 52.8081C74.1008 52.5173 74.6189 51.7197 75.5469 51.7197C76.6398 51.7197 77.1324 52.6965 77.1324 53.2852L77.1324 57.8457C77.1324 58.354 77.8383 58.7671 78.7096 58.7671C79.5809 58.7671 80.2866 58.354 80.2866 57.8457L80.2866 53.7419C80.2866 53.7419 80.2827 50.1477 76.2911 50.1477ZM53.7882 50.5381L51.6206 50.5381L51.6206 46.1965L48.3837 46.1965L48.3837 57.6963C48.3837 58.2888 48.8633 58.7683 49.4557 58.7683L54.7794 58.7683C56.0958 58.7683 57.9707 58.1233 57.9707 54.8101L57.9707 54.4954C57.9707 51.1814 55.1066 50.5369 53.7902 50.5369L53.7882 50.5381ZM54.6555 55.0603C54.6555 57.1665 53.4636 57.5779 52.6268 57.5779L51.6206 57.5779L51.6206 52.0813L52.2339 52.0813C53.6122 52.0813 54.6555 52.1667 54.6555 54.5989L54.6555 55.0603ZM35.5583 55.6643C35.3179 55.6643 35.136 55.7466 34.9751 55.8965C34.8141 56.0457 34.7574 56.1167 34.6603 56.2163C34.2035 56.6882 33.9271 57.2207 32.6779 57.2207C31.2885 57.2207 30.8231 56.0698 30.8231 54.6504C30.8231 53.231 31.2885 52.0801 32.6779 52.0801C33.3778 52.0801 34.0099 52.3721 34.4668 52.8433C34.5638 52.9429 34.6519 53.0525 34.7313 53.1677C34.9054 53.3091 35.1243 53.3958 35.3647 53.3958C35.9259 53.3958 36.3801 52.9417 36.3801 52.3818C36.3801 52.2051 36.33 52.043 36.2517 51.8977C36.1312 51.7595 36.0028 51.6272 35.8646 51.5034C34.9882 50.7129 33.7825 50.2246 32.451 50.2246C29.7694 50.2246 27.5959 52.2073 27.5959 54.6516C27.5959 57.0969 29.7694 59.0786 32.451 59.0786C35.3322 59.0786 36.3247 57.3035 36.4453 57.1653C36.5255 57.0212 36.5737 56.8577 36.5737 56.6809C36.5737 56.1199 36.1195 55.667 35.5583 55.667L35.5583 55.6643ZM0 47.5222L46.7198 47.5222L46.7198 46.198L0 46.198L0 47.5222ZM64.6265 47.5222L80.2866 47.5222L80.2866 46.198L64.6265 46.198L64.6265 47.5222ZM53.4552 47.5222L57.9688 47.5222L57.9688 46.198L53.4564 46.198L53.4552 47.5222Z" fill="#171615" fill-opacity="1.000000" fill-rule="nonzero"/>
</svg>
