<svg width="172.000000" height="28.000000" viewBox="0 0 172 28" fill="none" xmlns="http://www.w3.org/2000/svg" xmlns:xlink="http://www.w3.org/1999/xlink">
	<desc>
			Created with Pixso.
	</desc>
	<defs>
		<clipPath id="clip3_480">
			<rect id="entypo-social:twitter-with-circle" width="28.000000" height="28.000000" fill="white" fill-opacity="0"/>
		</clipPath>
		<clipPath id="clip3_484">
			<rect id="akar-icons:facebook-fill" width="28.000000" height="28.000000" transform="translate(36.000000 0.000000)" fill="white" fill-opacity="0"/>
		</clipPath>
		<clipPath id="clip3_487">
			<rect id="entypo-social:youtube-with-circle" width="28.000000" height="28.000000" transform="translate(72.000000 0.000000)" fill="white" fill-opacity="0"/>
		</clipPath>
		<clipPath id="clip3_490">
			<rect id="cib:telegram" width="28.000000" height="28.000000" transform="translate(108.000000 0.000000)" fill="white" fill-opacity="0"/>
		</clipPath>
		<clipPath id="clip3_494">
			<rect id="akar-icons:instagram-fill" width="17.500000" height="17.500000" transform="translate(149.250000 5.250000)" fill="white" fill-opacity="0"/>
		</clipPath>
	</defs>
	<rect id="entypo-social:twitter-with-circle" width="28.000000" height="28.000000" fill="#FFFFFF" fill-opacity="0"/>
	<g clip-path="url(#clip3_480)">
		<circle id="Ellipse 142" cx="14.496094" cy="14.500000" r="9.500000" fill="#FFFFFF" fill-opacity="1.000000"/>
		<path id="Vector" d="M14 0.560059C6.57727 0.560059 0.560059 6.57726 0.560059 14.0001C0.560059 21.4229 6.57727 27.4401 14 27.4401C21.4229 27.4401 27.4401 21.4229 27.4401 14.0001C27.4401 6.57726 21.4229 0.560059 14 0.560059ZM19.467 11.5697C19.4727 11.6845 19.474 11.7993 19.474 11.9113C19.474 15.4113 16.8126 19.4447 11.9435 19.4447C10.5046 19.4471 9.09583 19.0338 7.88623 18.2547C8.09204 18.2799 8.30347 18.2897 8.5177 18.2897C9.75806 18.2897 10.899 17.8683 11.8048 17.1571C11.2528 17.1462 10.718 16.9634 10.2748 16.6342C9.83167 16.3049 9.5022 15.8456 9.3324 15.3203C9.72888 15.3956 10.1372 15.3798 10.5266 15.2741C9.92749 15.1529 9.38879 14.8283 9.00171 14.3552C8.6145 13.8821 8.40295 13.2897 8.40283 12.6785L8.40283 12.6463C8.75989 12.8437 9.1687 12.9641 9.60266 12.9781C9.04102 12.6042 8.64331 12.0298 8.49109 11.3724C8.33887 10.7151 8.44348 10.0244 8.78369 9.44166C9.44861 10.2593 10.2778 10.9281 11.2177 11.4049C12.1575 11.8817 13.187 12.1558 14.2395 12.2095C14.1056 11.6415 14.1632 11.0452 14.4033 10.5134C14.6433 9.9815 15.0524 9.54384 15.5668 9.26842C16.0812 8.99301 16.6722 8.89527 17.2479 8.9904C17.8236 9.08553 18.3518 9.36819 18.7502 9.79446C19.3427 9.67724 19.9108 9.45993 20.4303 9.15186C20.2328 9.76524 19.8195 10.2861 19.2668 10.6177C19.7916 10.5545 20.3041 10.4134 20.7872 10.1991C20.4324 10.7309 19.9852 11.1951 19.467 11.5697Z" fill="#111111" fill-opacity="1.000000" fill-rule="nonzero"/>
	</g>
	<rect id="akar-icons:facebook-fill" width="28.000000" height="28.000000" transform="translate(36.000000 0.000000)" fill="#FFFFFF" fill-opacity="0"/>
	<g clip-path="url(#clip3_484)">
		<circle id="Ellipse 142" cx="49.995850" cy="16.106199" r="12.101316" fill="#FFFFFF" fill-opacity="1.000000"/>
		<path id="Vector" d="M36 14.0782C36 21.0385 41.0552 26.8263 47.6666 28L47.6666 17.8885L44.1666 17.8885L44.1666 14L47.6666 14L47.6666 10.8885C47.6666 7.3885 49.9219 5.44483 53.1115 5.44483C54.1218 5.44483 55.2115 5.6 56.2218 5.75517L56.2218 9.33334L54.4333 9.33334C52.7218 9.33334 52.3334 10.1885 52.3334 11.2782L52.3334 14L56.0667 14L55.4448 17.8885L52.3334 17.8885L52.3334 28C58.9448 26.8263 64 21.0397 64 14.0782C64 6.335 57.7 0 50 0C42.3 0 36 6.335 36 14.0782Z" fill="#111111" fill-opacity="1.000000" fill-rule="evenodd"/>
	</g>
	<rect id="entypo-social:youtube-with-circle" width="28.000000" height="28.000000" transform="translate(72.000000 0.000000)" fill="#FFFFFF" fill-opacity="0"/>
	<g clip-path="url(#clip3_487)">
		<circle id="Ellipse 142" cx="86.496094" cy="14.500000" r="9.500000" fill="#FFFFFF" fill-opacity="1.000000"/>
		<path id="Vector" d="M88.2443 13.7663L85.0999 12.2991C84.8254 12.1717 84.6001 12.3145 84.6001 12.6183L84.6001 15.3819C84.6001 15.6857 84.8254 15.8285 85.0999 15.7011L88.2428 14.2339C88.5187 14.1051 88.5187 13.8951 88.2443 13.7663ZM86 0.560059C78.5773 0.560059 72.5601 6.57726 72.5601 14.0001C72.5601 21.4229 78.5773 27.4401 86 27.4401C93.4229 27.4401 99.4401 21.4229 99.4401 14.0001C99.4401 6.57726 93.4229 0.560059 86 0.560059ZM86 19.4601C79.1205 19.4601 79 18.8399 79 14.0001C79 9.16026 79.1205 8.54006 86 8.54006C92.8796 8.54006 93 9.16026 93 14.0001C93 18.8399 92.8796 19.4601 86 19.4601Z" fill="#111111" fill-opacity="1.000000" fill-rule="nonzero"/>
	</g>
	<rect id="cib:telegram" width="28.000000" height="28.000000" transform="translate(108.000000 0.000000)" fill="#FFFFFF" fill-opacity="0"/>
	<g clip-path="url(#clip3_490)">
		<circle id="Ellipse 142" cx="122.496094" cy="14.500000" r="9.500000" fill="#FFFFFF" fill-opacity="1.000000"/>
		<path id="Vector" d="M122 0.4375C114.507 0.4375 108.438 6.50825 108.438 14C108.438 21.4918 114.508 27.5625 122 27.5625C129.493 27.5625 135.562 21.4918 135.562 14C135.562 6.50825 129.492 0.4375 122 0.4375ZM128.661 9.72913L126.435 20.2186C126.271 20.9624 125.828 21.1426 125.21 20.7926L121.82 18.2936L120.184 19.8686C120.004 20.0489 119.851 20.202 119.501 20.202L119.742 16.751L126.025 11.074C126.299 10.8334 125.965 10.6969 125.603 10.9375L117.838 15.8261L114.491 14.7814C113.764 14.5521 113.747 14.0542 114.644 13.7043L127.72 8.66162C128.327 8.44287 128.857 8.8095 128.661 9.72825L128.661 9.72913Z" fill="#111111" fill-opacity="1.000000" fill-rule="nonzero"/>
	</g>
	<circle id="Ellipse 8" cx="158.000000" cy="14.000000" r="14.000000" fill="#111111" fill-opacity="1.000000"/>
	<rect id="akar-icons:instagram-fill" width="17.500000" height="17.500000" transform="translate(149.250000 5.250000)" fill="#000000" fill-opacity="1.000000"/>
	<g clip-path="url(#clip3_494)">
		<path id="Vector" d="M154.693 6.02737C155.549 5.988 155.821 5.97925 158 5.97925C160.179 5.97925 160.452 5.98873 161.306 6.02737C162.161 6.06602 162.744 6.20237 163.254 6.39998C163.789 6.60196 164.274 6.91769 164.675 7.32602C165.083 7.72633 165.398 8.2105 165.599 8.7457C165.798 9.25612 165.933 9.83945 165.973 10.6926C166.012 11.5494 166.021 11.8221 166.021 14.0001C166.021 16.1788 166.011 16.4515 165.973 17.3069C165.934 18.16 165.798 18.7433 165.599 19.2537C165.398 19.789 165.083 20.274 164.675 20.6749C164.274 21.0832 163.789 21.3982 163.254 21.5995C162.744 21.7978 162.161 21.9334 161.308 21.9728C160.452 22.0122 160.179 22.0209 158 22.0209C155.821 22.0209 155.549 22.0114 154.693 21.9728C153.84 21.9341 153.257 21.7978 152.746 21.5995C152.211 21.3982 151.726 21.0827 151.325 20.6749C150.917 20.2743 150.601 19.7896 150.4 19.2545C150.202 18.744 150.067 18.1607 150.027 17.3076C149.988 16.4508 149.979 16.1781 149.979 14.0001C149.979 11.8213 149.989 11.5486 150.027 10.694C150.066 9.83945 150.202 9.25612 150.4 8.7457C150.602 8.21056 150.918 7.72583 151.326 7.32529C151.726 6.91732 152.211 6.60155 152.746 6.39998C153.256 6.20237 153.839 6.06675 154.693 6.02737L154.693 6.02737ZM161.241 7.47112C160.395 7.43248 160.142 7.42446 158 7.42446C155.859 7.42446 155.605 7.43248 154.759 7.47112C153.977 7.50685 153.552 7.63737 153.269 7.74748C152.895 7.89331 152.628 8.06612 152.347 8.34685C152.081 8.60574 151.876 8.92091 151.747 9.26925C151.637 9.55217 151.507 9.97654 151.471 10.7589C151.432 11.6048 151.424 11.8585 151.424 14.0001C151.424 16.1416 151.432 16.3954 151.471 17.2412C151.507 18.0236 151.637 18.448 151.747 18.7309C151.876 19.0787 152.081 19.3945 152.347 19.6533C152.606 19.9195 152.921 20.1244 153.269 20.2527C153.552 20.3628 153.977 20.4933 154.759 20.529C155.605 20.5677 155.858 20.5757 158 20.5757C160.142 20.5757 160.395 20.5677 161.241 20.529C162.024 20.4933 162.448 20.3628 162.731 20.2527C163.105 20.1069 163.373 19.934 163.653 19.6533C163.919 19.3945 164.124 19.0787 164.253 18.7309C164.363 18.448 164.493 18.0236 164.529 17.2412C164.568 16.3954 164.576 16.1416 164.576 14.0001C164.576 11.8585 164.568 11.6048 164.529 10.7589C164.493 9.97654 164.363 9.55217 164.253 9.26925C164.107 8.89519 163.934 8.62758 163.653 8.34685C163.394 8.08076 163.079 7.87597 162.731 7.74748C162.448 7.63737 162.024 7.50685 161.241 7.47112ZM156.976 16.4727C157.548 16.7109 158.185 16.743 158.778 16.5636C159.371 16.3843 159.884 16.0045 160.228 15.4892C160.573 14.9739 160.727 14.3551 160.666 13.7384C160.605 13.1217 160.331 12.5454 159.892 12.1079C159.612 11.8282 159.274 11.6141 158.902 11.4809C158.529 11.3477 158.132 11.2988 157.738 11.3376C157.344 11.3764 156.964 11.5021 156.625 11.7055C156.285 11.9089 155.995 12.185 155.776 12.5139C155.556 12.8429 155.412 13.2164 155.354 13.6078C155.296 13.9991 155.325 14.3984 155.44 14.777C155.554 15.1556 155.752 15.5041 156.017 15.7973C156.283 16.0905 156.61 16.3212 156.976 16.4727ZM155.085 11.0849C155.468 10.702 155.922 10.3984 156.422 10.1912C156.923 9.98399 157.459 9.87735 158 9.87735C158.542 9.87735 159.078 9.98399 159.578 10.1912C160.078 10.3984 160.532 10.702 160.915 11.0849C161.298 11.4677 161.602 11.9222 161.809 12.4224C162.016 12.9226 162.123 13.4587 162.123 14.0001C162.123 14.5415 162.016 15.0776 161.809 15.5778C161.602 16.078 161.298 16.5325 160.915 16.9153C160.142 17.6884 159.094 18.1228 158 18.1228C156.907 18.1228 155.858 17.6884 155.085 16.9153C154.312 16.1421 153.877 15.0935 153.877 14.0001C153.877 12.9067 154.312 11.858 155.085 11.0849ZM163.037 10.4913C163.132 10.4018 163.208 10.2942 163.26 10.1749C163.313 10.0555 163.341 9.92679 163.343 9.79638C163.345 9.66598 163.321 9.53652 163.272 9.41567C163.223 9.29482 163.15 9.18504 163.057 9.09282C162.965 9.0006 162.856 8.92782 162.735 8.87879C162.614 8.82976 162.484 8.80548 162.354 8.80738C162.224 8.80928 162.095 8.83733 161.975 8.88986C161.856 8.94239 161.749 9.01834 161.659 9.1132C161.485 9.29771 161.39 9.54277 161.393 9.79638C161.397 10.05 161.5 10.2922 161.679 10.4715C161.858 10.6509 162.1 10.7533 162.354 10.757C162.608 10.7607 162.853 10.6654 163.037 10.4913Z" fill="#FFFFFF" fill-opacity="1.000000" fill-rule="evenodd"/>
	</g>
</svg>
